solid 
facet normal -1 -0 -0
 outer loop
  vertex -5 -3 -0.67
  vertex -5 -3 0.67
  vertex -5 3 0.67
 endloop
endfacet
facet normal -1 -0 0
 outer loop
  vertex -5 -3 -0.67
  vertex -5 3 0.67
  vertex -5 3 -0.67
 endloop
endfacet
facet normal 0 1 0
 outer loop
  vertex -5 3 -0.67
  vertex -5 3 0.67
  vertex 5 3 0.67
 endloop
endfacet
facet normal 0 1 -0
 outer loop
  vertex -5 3 -0.67
  vertex 5 3 0.67
  vertex 5 3 -0.67
 endloop
endfacet
facet normal 1 -0 0
 outer loop
  vertex 5 3 -0.67
  vertex 5 3 0.67
  vertex 5 -3 0.67
 endloop
endfacet
facet normal 1 -0 0
 outer loop
  vertex 5 3 -0.67
  vertex 5 -3 0.67
  vertex 5 -3 -0.67
 endloop
endfacet
facet normal 0 -1 0
 outer loop
  vertex 5 -3 -0.67
  vertex 5 -3 0.67
  vertex -5 -3 0.67
 endloop
endfacet
facet normal 0 -1 0
 outer loop
  vertex 5 -3 -0.67
  vertex -5 -3 0.67
  vertex -5 -3 -0.67
 endloop
endfacet
facet normal 0 0 -1
 outer loop
  vertex -5 3 -0.67
  vertex 5 3 -0.67
  vertex 5 -3 -0.67
 endloop
endfacet
facet normal 0 0 -1
 outer loop
  vertex -5 3 -0.67
  vertex 5 -3 -0.67
  vertex -5 -3 -0.67
 endloop
endfacet
facet normal 0 0 1
 outer loop
  vertex 5 3 0.67
  vertex -5 3 0.67
  vertex -5 -3 0.67
 endloop
endfacet
facet normal 0 -0 1
 outer loop
  vertex 5 3 0.67
  vertex -5 -3 0.67
  vertex 5 -3 0.67
 endloop
endfacet
endsolid 
